# xmcd
#
# Track frame offsets: 
#        150
#        25766
#        46713
#        62505
#        86479
#        97878
#        123682
#        136328
#        159540
#        177930
#        192539
#        206591
#
# Disc length: 2958 seconds
#
# Revision: 2
# Processed by: cddbd v1.5.2PL0 Copyright (c) Steve Scherf et al.
# Submitted via: ExactAudioCopyFreeDBPlugin 1.0
#
DISCID=9c0b8c0c
DTITLE=Keller Williams with the Travelin' McCourys - Pick
DYEAR=2012
DGENRE=Bluegrass
TTITLE0=Something Else
TTITLE1=American Car
TTITLE2=Messed Up Just Right
TTITLE3=Mullet Cut
TTITLE4=The Graveyard Shift
TTITLE5=I Am Elvis
TTITLE6=What a Waste of Good Corn Liqour
TTITLE7=Broken Convertible
TTITLE8=I'm Amazed
TTITLE9=Price Tag
TTITLE10=Sexual Harassment
TTITLE11=Bumper Sticker
EXTD=
EXTT0=
EXTT1=
EXTT2=
EXTT3=
EXTT4=
EXTT5=
EXTT6=
EXTT7=
EXTT8=
EXTT9=
EXTT10=
EXTT11=
PLAYORDER=
